<?xml version="1.0" encoding="UTF-8" standalone="no"?>
<svg
   xmlns:dc="http://purl.org/dc/elements/1.1/"
   xmlns:cc="http://creativecommons.org/ns#"
   xmlns:rdf="http://www.w3.org/1999/02/22-rdf-syntax-ns#"
   xmlns:svg="http://www.w3.org/2000/svg"
   xmlns="http://www.w3.org/2000/svg"
   xmlns:sodipodi="http://sodipodi.sourceforge.net/DTD/sodipodi-0.dtd"
   xmlns:inkscape="http://www.inkscape.org/namespaces/inkscape"
   sodipodi:docname="pipeline-failures.svg"
   inkscape:version="1.0 (4035a4fb49, 2020-05-01)"
   id="svg8"
   version="1.1"
   viewBox="0 0 210 40"
   height="40mm"
   width="210mm">
  <defs
     id="defs2">
    <clipPath
       clipPathUnits="userSpaceOnUse"
       id="clipEmfPath1">
      <path
         d="M 2.7111811,2.7111811 H 1013.9817 V 195.88283 H 2.7111811 Z"
         id="path833" />
    </clipPath>
    <pattern
       id="EMFhbasepattern"
       patternUnits="userSpaceOnUse"
       width="6"
       height="6"
       x="0"
       y="0" />
    <clipPath
       id="clipEmfPath1-5"
       clipPathUnits="userSpaceOnUse">
      <path
         id="path919"
         d="M 2.7111811,2.7111811 L 189.78268,2.7111811 L 189.78268,126.74772 L 2.7111811,126.74772 z" />
    </clipPath>
    <pattern
       y="0"
       x="0"
       height="6"
       width="6"
       patternUnits="userSpaceOnUse"
       id="EMFhbasepattern-0" />
  </defs>
  <sodipodi:namedview
     inkscape:window-maximized="0"
     inkscape:window-y="39"
     inkscape:window-x="2266"
     inkscape:window-height="1208"
     inkscape:window-width="1424"
     showgrid="false"
     inkscape:document-rotation="0"
     inkscape:current-layer="layer1"
     inkscape:document-units="mm"
     inkscape:cy="77.491508"
     inkscape:cx="446.01486"
     inkscape:zoom="0.70710678"
     inkscape:pageshadow="2"
     inkscape:pageopacity="0.0"
     borderopacity="1.0"
     bordercolor="#666666"
     pagecolor="#ffffff"
     id="base"
     inkscape:object-paths="false"
     inkscape:snap-others="false"
     inkscape:object-nodes="false" />
  <metadata
     id="metadata5">
    <rdf:RDF>
      <cc:Work
         rdf:about="">
        <dc:format>image/svg+xml</dc:format>
        <dc:type
           rdf:resource="http://purl.org/dc/dcmitype/StillImage" />
        <dc:title />
      </cc:Work>
    </rdf:RDF>
  </metadata>
  <g
     id="layer1"
     inkscape:groupmode="layer"
     inkscape:label="Layer 1">
    <path
       style="fill:#ffd05c;fill-opacity:1;stroke:#000000;stroke-width:0.179332px;stroke-linecap:butt;stroke-linejoin:miter;stroke-miterlimit:8;stroke-dasharray:none;stroke-opacity:1"
       d="m 39.594925,14.558352 h 9.280117 v -1.546076 l 3.093372,3.092153 -3.093372,3.092152 v -1.546076 h -9.280117 z"
       id="path841" />
    <path
       style="fill:#ffd05c;fill-opacity:1;fill-rule:evenodd;stroke:none;stroke-width:0.264583"
       d="m 165.57954,6.6148178 c 0,-3.6367941 2.95276,-6.58839407 6.59099,-6.58839407 h 31.11826 c 3.63823,0 6.58221,2.95159997 6.58221,6.58839407 V 32.942041 c 0,3.636793 -2.94398,6.57961 -6.58221,6.57961 h -31.11826 c -3.63823,0 -6.59099,-2.942817 -6.59099,-6.57961 z"
       id="path843" />
    <path
       transform="matrix(0.2074488,0,0,0.20736704,-0.33770034,-0.53578594)"
       style="fill:none;stroke:#000000;stroke-width:0.86464px;stroke-linecap:butt;stroke-linejoin:round;stroke-miterlimit:10;stroke-dasharray:none;stroke-opacity:1"
       clip-path="url(#clipEmfPath1)"
       d="m 799.79843,34.482835 c 0,-17.537953 14.2337,-31.7716539 31.77165,-31.7716539 h 150.00457 c 17.53795,0 31.72925,14.2337009 31.72925,31.7716539 V 161.44236 c 0,17.53795 -14.1913,31.72929 -31.72925,31.72929 H 831.57008 c -17.53795,0 -31.77165,-14.19134 -31.77165,-31.72929 z"
       id="path845" />
    <text
       transform="scale(1.0001971,0.99980298)"
       xml:space="preserve"
       style="font-style:normal;font-variant:normal;font-weight:700;font-size:4.21297px;line-height:125%;font-family:Arial;text-align:start;letter-spacing:0px;word-spacing:0px;text-anchor:start;fill:#000000;fill-opacity:1;stroke:none;stroke-width:0.264583"
       x="176.60588"
       y="7.5911374"
       id="text851"><tspan
         style="stroke-width:0.264583"
         sodipodi:role="line"
         x="176.60588"
         y="7.5911374"
         id="tspan849"><tspan
           dx="0"
           dy="0"
           style="font-style:normal;font-variant:normal;font-weight:700;font-size:4.21297px;font-family:Arial;fill:#000000;stroke-width:0.264583"
           id="tspan847">Production</tspan></tspan></text>
    <path
       style="fill:#ffd05c;fill-opacity:1;fill-rule:evenodd;stroke:#000000;stroke-width:0.264583;stroke-opacity:1"
       d="m 91.338603,29.21224 h 9.420727 v -1.546076 l 3.09337,3.092153 -3.09337,3.092152 v -1.546076 h -9.420727 z"
       id="path883" />
    <path
       style="fill:none;fill-opacity:1;fill-rule:evenodd;stroke:#000000;stroke-width:0.265;stroke-miterlimit:4;stroke-dasharray:1.06, 0.53;stroke-dashoffset:0;stroke-opacity:1"
       d="m 143.22289,29.057723 h 19.26328 v -1.546076 l 3.09337,3.092153 -3.09337,3.092152 v -1.546076 h -19.26328 z"
       id="path887" />
    <path
       style="fill:#ffd05c;fill-opacity:1;fill-rule:evenodd;stroke:none;stroke-width:0.264583"
       d="m 103.8527,6.8695689 c 0,-3.6192246 2.94398,-6.56204088 6.56463,-6.56204088 h 26.24972 c 3.62064,0 6.55584,2.94281628 6.55584,6.56204088 V 33.108948 c 0,3.619224 -2.9352,6.553257 -6.55584,6.553257 h -26.24972 c -3.62065,0 -6.56463,-2.934033 -6.56463,-6.553257 z"
       id="path903" />
    <path
       transform="matrix(0.2074488,0,0,0.20736704,-0.33770034,-0.53578594)"
       style="fill:none;stroke:#000000;stroke-width:0.86464px;stroke-linecap:butt;stroke-linejoin:round;stroke-miterlimit:4;stroke-dasharray:none;stroke-opacity:1"
       clip-path="url(#clipEmfPath1)"
       d="m 502.2463,35.711339 c 0,-17.453229 14.19134,-31.6445673 31.64457,-31.6445673 h 126.5359 c 17.45323,0 31.60221,14.1913383 31.60221,31.6445673 V 162.24724 c 0,17.45323 -14.14898,31.60221 -31.60221,31.60221 h -126.5359 c -17.45323,0 -31.64457,-14.14898 -31.64457,-31.60221 z"
       id="path905" />
    <text
       transform="scale(1.0001971,0.99980298)"
       xml:space="preserve"
       style="font-style:normal;font-variant:normal;font-weight:700;font-size:4.21297px;line-height:125%;font-family:Arial;text-align:start;letter-spacing:0px;word-spacing:0px;text-anchor:start;fill:#000000;fill-opacity:1;stroke:none;stroke-width:0.264583"
       x="111.6658"
       y="7.8619103"
       id="text911"><tspan
         style="stroke-width:0.264583"
         sodipodi:role="line"
         x="111.6658"
         y="7.8619103"
         id="tspan909"><tspan
           dx="0"
           dy="0"
           style="font-style:normal;font-variant:normal;font-weight:700;font-size:4.21297px;font-family:Arial;fill:#000000;stroke-width:0.264583"
           id="tspan907">Acceptance</tspan></tspan></text>
    <path
       style="fill:#ffd05c;fill-opacity:1;fill-rule:evenodd;stroke:none;stroke-width:0.264583"
       d="m 51.968414,6.8695689 c 0,-3.6192246 2.943976,-6.56204088 6.564628,-6.56204088 h 26.249726 c 3.620649,0 6.555835,2.94281628 6.555835,6.56204088 V 33.108948 c 0,3.619224 -2.935186,6.553257 -6.555835,6.553257 H 58.533042 c -3.620652,0 -6.564628,-2.934033 -6.564628,-6.553257 z"
       id="path943" />
    <path
       transform="matrix(0.2074488,0,0,0.20736704,-0.33770034,-0.53578594)"
       style="fill:none;stroke:#000000;stroke-width:0.86464px;stroke-linecap:butt;stroke-linejoin:round;stroke-miterlimit:4;stroke-dasharray:none;stroke-opacity:1"
       clip-path="url(#clipEmfPath1)"
       d="m 252.13984,35.711339 c 0,-17.453229 14.19134,-31.6445673 31.64457,-31.6445673 h 126.5359 c 17.45323,0 31.60221,14.1913383 31.60221,31.6445673 V 162.24724 c 0,17.45323 -14.14898,31.60221 -31.60221,31.60221 h -126.5359 c -17.45323,0 -31.64457,-14.14898 -31.64457,-31.60221 z"
       id="path945" />
    <text
       transform="scale(1.0001971,0.99980298)"
       xml:space="preserve"
       style="font-style:normal;font-variant:normal;font-weight:700;font-size:4.21297px;line-height:125%;font-family:Arial;text-align:start;letter-spacing:0px;word-spacing:0px;text-anchor:start;fill:#000000;fill-opacity:1;stroke:none;stroke-width:0.264583"
       x="60.739487"
       y="7.8619103"
       id="text951"><tspan
         style="stroke-width:0.264583"
         sodipodi:role="line"
         x="60.739487"
         y="7.8619103"
         id="tspan949"><tspan
           dx="0"
           dy="0"
           style="font-style:normal;font-variant:normal;font-weight:700;font-size:4.21297px;font-family:Arial;fill:#000000;stroke-width:0.264583"
           id="tspan947">Integration</tspan></tspan></text>
    <path
       style="fill:#ffd05c;fill-opacity:1;fill-rule:evenodd;stroke:none;stroke-width:0.264583"
       d="m 0.22473131,7.0101216 c 0,-3.6192245 2.94397639,-6.56204089 6.56462839,-6.56204089 H 33.039083 c 3.620653,0 6.555842,2.94281639 6.555842,6.56204089 V 33.2495 c 0,3.619225 -2.935189,6.553256 -6.555842,6.553256 H 6.7893597 c -3.620652,0 -6.56462839,-2.934031 -6.56462839,-6.553256 z"
       id="path971" />
    <path
       transform="matrix(0.2074488,0,0,0.20736704,-0.33770034,-0.53578594)"
       style="fill:none;stroke:#000000;stroke-width:0.86464px;stroke-linecap:butt;stroke-linejoin:round;stroke-miterlimit:4;stroke-dasharray:none;stroke-opacity:1"
       clip-path="url(#clipEmfPath1)"
       d="M 2.7111811,36.389134 C 2.7111811,18.935906 16.90252,4.7445669 34.355748,4.7445669 H 160.89165 c 17.45323,0 31.60221,14.1913391 31.60221,31.6445671 V 162.92504 c 0,17.45323 -14.14898,31.6022 -31.60221,31.6022 H 34.355748 c -17.453228,0 -31.6445669,-14.14897 -31.6445669,-31.6022 z"
       id="path973" />
    <text
       transform="scale(1.0001971,0.99980298)"
       xml:space="preserve"
       style="font-style:normal;font-variant:normal;font-weight:700;font-size:4.21297px;line-height:125%;font-family:Arial;text-align:start;letter-spacing:0px;word-spacing:0px;text-anchor:start;fill:#000000;fill-opacity:1;stroke:none;stroke-width:0.264583"
       x="12.097326"
       y="7.9659824"
       id="text979"><tspan
         style="stroke-width:0.264583"
         sodipodi:role="line"
         x="12.097326"
         y="7.9659824"
         id="tspan977"><tspan
           dx="0"
           dy="0"
           style="font-style:normal;font-variant:normal;font-weight:700;font-size:4.21297px;font-family:Arial;fill:#000000;stroke-width:0.264583"
           id="tspan975">Commit</tspan></tspan></text>
    <rect
       style="fill:#daf7cb;fill-opacity:1;stroke:#000000;stroke-width:0.3;stroke-linecap:round;stroke-linejoin:round;stroke-miterlimit:4;stroke-dasharray:none;stroke-opacity:1"
       id="rect915"
       width="39.27"
       height="10.936063"
       x="0.27434069"
       y="10.736847"
       ry="4"
       rx="4" />
    <rect
       rx="4"
       ry="4"
       y="10.736847"
       x="52.132675"
       height="10.936063"
       width="39.27"
       id="rect917"
       style="fill:#ffdcc6;fill-opacity:1;stroke:#000000;stroke-width:0.3;stroke-linecap:round;stroke-linejoin:round;stroke-miterlimit:4;stroke-dasharray:none;stroke-opacity:1" />
    <rect
       rx="4"
       ry="4"
       y="24.847908"
       x="0.27434069"
       height="10.936063"
       width="39.27"
       id="rect949"
       style="fill:#daf7cb;fill-opacity:1;stroke:#000000;stroke-width:0.3;stroke-linecap:round;stroke-linejoin:round;stroke-miterlimit:4;stroke-dasharray:none;stroke-opacity:1" />
    <rect
       style="fill:#daf7cb;fill-opacity:1;stroke:#000000;stroke-width:0.3;stroke-linecap:round;stroke-linejoin:round;stroke-miterlimit:4;stroke-dasharray:none;stroke-opacity:1"
       id="rect953"
       width="39.27"
       height="10.936063"
       x="52.085903"
       y="25.024347"
       ry="4"
       rx="4" />
    <rect
       rx="4"
       ry="4"
       y="25.024347"
       x="103.94141"
       height="10.936063"
       width="39.27"
       id="rect955"
       style="fill:#daf7cb;fill-opacity:1;stroke:#000000;stroke-width:0.3;stroke-linecap:round;stroke-linejoin:round;stroke-miterlimit:4;stroke-dasharray:none;stroke-opacity:1" />
    <path
       id="path957"
       d="m 39.594925,29.151268 h 9.280117 v -1.546076 l 3.093372,3.092153 -3.093372,3.092152 v -1.546076 h -9.280117 z"
       style="fill:#ffd05c;fill-opacity:1;stroke:#000000;stroke-width:0.179332px;stroke-linecap:butt;stroke-linejoin:miter;stroke-miterlimit:8;stroke-dasharray:none;stroke-opacity:1" />
    <text
       xml:space="preserve"
       style="font-size:6.35px;line-height:1.25;font-family:BentonSans;-inkscape-font-specification:'BentonSans, Normal';stroke-width:0.264583"
       x="144.90016"
       y="26.566589"
       id="text961"><tspan
         sodipodi:role="line"
         id="tspan959"
         x="144.90016"
         y="26.566589"
         style="stroke-width:0.264583" /></text>
    <text
       xml:space="preserve"
       style="font-size:6.35px;line-height:1.25;font-family:BentonSans;-inkscape-font-specification:'BentonSans, Normal';stroke-width:0.264583"
       x="11.002908"
       y="18.516788"
       id="text965"><tspan
         sodipodi:role="line"
         id="tspan963"
         x="11.002908"
         y="18.516788"
         style="stroke-width:0.264583">v1.1 ✔️</tspan></text>
    <text
       id="text969"
       y="18.4342"
       x="62.110901"
       style="font-size:6.35px;line-height:1.25;font-family:BentonSans;-inkscape-font-specification:'BentonSans, Normal';stroke-width:0.264583"
       xml:space="preserve"><tspan
         style="stroke-width:0.264583"
         y="18.4342"
         x="62.110901"
         id="tspan967"
         sodipodi:role="line">v1.1 ❌</tspan></text>
    <text
       id="text973"
       y="32.671257"
       x="10.513016"
       style="font-size:6.35px;line-height:1.25;font-family:BentonSans;-inkscape-font-specification:'BentonSans, Normal';stroke-width:0.264583"
       xml:space="preserve"><tspan
         style="stroke-width:0.264583"
         y="32.671257"
         x="10.513016"
         id="tspan971"
         sodipodi:role="line">v1.2 ✔️</tspan></text>
    <text
       xml:space="preserve"
       style="font-size:6.35px;line-height:1.25;font-family:BentonSans;-inkscape-font-specification:'BentonSans, Normal';stroke-width:0.264583"
       x="62.324577"
       y="32.847698"
       id="text982"><tspan
         sodipodi:role="line"
         id="tspan980"
         x="62.324577"
         y="32.847698"
         style="stroke-width:0.264583">v1.2 ✔️</tspan></text>
    <text
       id="text986"
       y="32.847698"
       x="114.18008"
       style="font-size:6.35px;line-height:1.25;font-family:BentonSans;-inkscape-font-specification:'BentonSans, Normal';stroke-width:0.264583"
       xml:space="preserve"><tspan
         style="stroke-width:0.264583"
         y="32.847698"
         x="114.18008"
         id="tspan984"
         sodipodi:role="line">v1.2 ✔️</tspan></text>
  </g>
</svg>
