<svg width="3510" height="1205" xmlns="http://www.w3.org/2000/svg" xmlns:xlink="http://www.w3.org/1999/xlink" xml:space="preserve" overflow="hidden"><g transform="translate(-660 -1127)"><g><path d="M823.5 1958.38C823.5 1984.26 928.042 2005.25 1057 2005.25 1185.96 2005.25 1290.5 1984.26 1290.5 1958.38L1290.5 2239.62C1290.5 2265.51 1185.96 2286.5 1057 2286.5 928.042 2286.5 823.5 2265.51 823.5 2239.62Z" fill="#D0CECE" fill-rule="evenodd" fill-opacity="1"/><path d="M823.5 1958.38C823.5 1932.49 928.042 1911.5 1057 1911.5 1185.96 1911.5 1290.5 1932.49 1290.5 1958.38 1290.5 1984.26 1185.96 2005.25 1057 2005.25 928.042 2005.25 823.5 1984.26 823.5 1958.38Z" fill="#E3E2E2" fill-rule="evenodd" fill-opacity="1"/><path d="M1290.5 1958.38C1290.5 1984.26 1185.96 2005.25 1057 2005.25 928.042 2005.25 823.5 1984.26 823.5 1958.38 823.5 1932.49 928.042 1911.5 1057 1911.5 1185.96 1911.5 1290.5 1932.49 1290.5 1958.38L1290.5 2239.62C1290.5 2265.51 1185.96 2286.5 1057 2286.5 928.042 2286.5 823.5 2265.51 823.5 2239.62L823.5 1958.38" stroke="#000000" stroke-width="4.58333" stroke-linecap="butt" stroke-linejoin="miter" stroke-miterlimit="8" stroke-opacity="1" fill="none" fill-rule="evenodd"/><text fill="#000000" fill-opacity="1" font-family="Calibri,Calibri_MSFontService,sans-serif" font-style="normal" font-variant="normal" font-weight="400" font-stretch="normal" font-size="83" text-anchor="start" direction="ltr" writing-mode="lr-tb" unicode-bidi="normal" text-decoration="none" transform="matrix(1 0 0 1 903.311 2149)">database</text><path d="M1057.5 1573.5 1057.5 1910.54" stroke="#000000" stroke-width="20.625" stroke-linecap="butt" stroke-linejoin="miter" stroke-miterlimit="8" stroke-opacity="1" fill="none" fill-rule="evenodd"/><path d="M3110.5 1960C3110.5 1985.68 3215.04 2006.5 3344 2006.5 3472.96 2006.5 3577.5 1985.68 3577.5 1960L3577.5 2239C3577.5 2264.68 3472.96 2285.5 3344 2285.5 3215.04 2285.5 3110.5 2264.68 3110.5 2239Z" fill="#D0CECE" fill-rule="evenodd" fill-opacity="1"/><path d="M3110.5 1960C3110.5 1934.32 3215.04 1913.5 3344 1913.5 3472.96 1913.5 3577.5 1934.32 3577.5 1960 3577.5 1985.68 3472.96 2006.5 3344 2006.5 3215.04 2006.5 3110.5 1985.68 3110.5 1960Z" fill="#E3E2E2" fill-rule="evenodd" fill-opacity="1"/><path d="M3577.5 1960C3577.5 1985.68 3472.96 2006.5 3344 2006.5 3215.04 2006.5 3110.5 1985.68 3110.5 1960 3110.5 1934.32 3215.04 1913.5 3344 1913.5 3472.96 1913.5 3577.5 1934.32 3577.5 1960L3577.5 2239C3577.5 2264.68 3472.96 2285.5 3344 2285.5 3215.04 2285.5 3110.5 2264.68 3110.5 2239L3110.5 1960" stroke="#000000" stroke-width="4.58333" stroke-linecap="butt" stroke-linejoin="miter" stroke-miterlimit="8" stroke-opacity="1" fill="none" fill-rule="evenodd"/><text fill="#000000" fill-opacity="1" font-family="Calibri,Calibri_MSFontService,sans-serif" font-style="normal" font-variant="normal" font-weight="400" font-stretch="normal" font-size="83" text-anchor="start" direction="ltr" writing-mode="lr-tb" unicode-bidi="normal" text-decoration="none" transform="matrix(1 0 0 1 3190.18 2150)">database</text><path d="M3343.5 1575.5 3343.5 1913.33" stroke="#000000" stroke-width="20.625" stroke-linecap="butt" stroke-linejoin="miter" stroke-miterlimit="8" stroke-opacity="1" fill="none" fill-rule="evenodd"/><path d="M51.5636-10.299 1507.26-9.9166 1507.25 10.7084 51.5582 10.326ZM61.8669 30.9538 0 0 61.8831-30.9212Z" fill="#000000" fill-rule="nonzero" fill-opacity="1" transform="matrix(-1 0 0 1 2953.75 1354.5)"/><path d="M667.5 1209.33C667.5 1169.11 700.109 1136.5 740.335 1136.5L1373.67 1136.5C1413.89 1136.5 1446.5 1169.11 1446.5 1209.33L1446.5 1500.67C1446.5 1540.89 1413.89 1573.5 1373.67 1573.5L740.335 1573.5C700.109 1573.5 667.5 1540.89 667.5 1500.67Z" stroke="#000000" stroke-width="6.875" stroke-linecap="butt" stroke-linejoin="miter" stroke-miterlimit="8" stroke-opacity="1" fill="#F2F2F2" fill-rule="evenodd" fill-opacity="1"/><text fill="#000000" fill-opacity="1" font-family="Arial,Arial_MSFontService,sans-serif" font-style="normal" font-variant="normal" font-weight="400" font-stretch="normal" font-size="83" text-anchor="start" direction="ltr" writing-mode="lr-tb" unicode-bidi="normal" text-decoration="none" transform="matrix(1 0 0 1 806.774 1254)">bulletinboard</text><text fill="#000000" fill-opacity="1" font-family="Arial,Arial_MSFontService,sans-serif" font-style="normal" font-variant="normal" font-weight="400" font-stretch="normal" font-size="83" text-anchor="start" direction="ltr" writing-mode="lr-tb" unicode-bidi="normal" text-decoration="none" transform="matrix(1 0 0 1 1278.86 1254)">-</text><text fill="#000000" fill-opacity="1" font-family="Arial,Arial_MSFontService,sans-serif" font-style="normal" font-variant="normal" font-weight="400" font-stretch="normal" font-size="83" text-anchor="start" direction="ltr" writing-mode="lr-tb" unicode-bidi="normal" text-decoration="none" transform="matrix(1 0 0 1 990.107 1353)">ads</text><path d="M2954.5 1208C2954.5 1167.41 2987.41 1134.5 3028 1134.5L3660 1134.5C3700.59 1134.5 3733.5 1167.41 3733.5 1208L3733.5 1502C3733.5 1542.59 3700.59 1575.5 3660 1575.5L3028 1575.5C2987.41 1575.5 2954.5 1542.59 2954.5 1502Z" stroke="#000000" stroke-width="6.875" stroke-linecap="butt" stroke-linejoin="miter" stroke-miterlimit="8" stroke-opacity="1" fill="#F2F2F2" fill-rule="evenodd" fill-opacity="1"/><text fill="#000000" fill-opacity="1" font-family="Arial,Arial_MSFontService,sans-serif" font-style="normal" font-variant="normal" font-weight="400" font-stretch="normal" font-size="83" text-anchor="start" direction="ltr" writing-mode="lr-tb" unicode-bidi="normal" text-decoration="none" transform="matrix(1 0 0 1 3093.64 1252)">bulletinboard</text><text fill="#000000" fill-opacity="1" font-family="Arial,Arial_MSFontService,sans-serif" font-style="normal" font-variant="normal" font-weight="400" font-stretch="normal" font-size="83" text-anchor="start" direction="ltr" writing-mode="lr-tb" unicode-bidi="normal" text-decoration="none" transform="matrix(1 0 0 1 3565.73 1252)">-</text><text fill="#000000" fill-opacity="1" font-family="Arial,Arial_MSFontService,sans-serif" font-style="normal" font-variant="normal" font-weight="400" font-stretch="normal" font-size="83" text-anchor="start" direction="ltr" writing-mode="lr-tb" unicode-bidi="normal" text-decoration="none" transform="matrix(1 0 0 1 3203.64 1351)">reviews</text><path d="M1212.5 1389.5C1212.5 1401.65 1257.94 1411.5 1314 1411.5 1370.06 1411.5 1415.5 1401.65 1415.5 1389.5L1415.5 1521.5C1415.5 1533.65 1370.06 1543.5 1314 1543.5 1257.94 1543.5 1212.5 1533.65 1212.5 1521.5Z" fill="#D0CECE" fill-rule="evenodd" fill-opacity="1"/><path d="M1212.5 1389.5C1212.5 1377.35 1257.94 1367.5 1314 1367.5 1370.06 1367.5 1415.5 1377.35 1415.5 1389.5 1415.5 1401.65 1370.06 1411.5 1314 1411.5 1257.94 1411.5 1212.5 1401.65 1212.5 1389.5Z" fill="#E3E2E2" fill-rule="evenodd" fill-opacity="1"/><path d="M1415.5 1389.5C1415.5 1401.65 1370.06 1411.5 1314 1411.5 1257.94 1411.5 1212.5 1401.65 1212.5 1389.5 1212.5 1377.35 1257.94 1367.5 1314 1367.5 1370.06 1367.5 1415.5 1377.35 1415.5 1389.5L1415.5 1521.5C1415.5 1533.65 1370.06 1543.5 1314 1543.5 1257.94 1543.5 1212.5 1533.65 1212.5 1521.5L1212.5 1389.5" stroke="#000000" stroke-width="4.58333" stroke-linecap="butt" stroke-linejoin="miter" stroke-miterlimit="8" stroke-opacity="1" fill="none" fill-rule="evenodd"/><text fill="#000000" fill-opacity="1" font-family="Calibri,Calibri_MSFontService,sans-serif" font-style="normal" font-variant="normal" font-weight="400" font-stretch="normal" font-size="55" text-anchor="start" direction="ltr" writing-mode="lr-tb" unicode-bidi="normal" text-decoration="none" transform="matrix(1 0 0 1 1248.79 1484)">cache</text><path d="M2015.5 1346 2098.7 1260.5 2348.3 1260.5 2431.5 1346 2348.3 1431.5 2098.7 1431.5Z" stroke="#172C51" stroke-width="4.58333" stroke-linecap="butt" stroke-linejoin="miter" stroke-miterlimit="8" stroke-opacity="1" fill="#4472C4" fill-rule="evenodd" fill-opacity="1"/><text fill="#FFFFFF" fill-opacity="1" font-family="Calibri,Calibri_MSFontService,sans-serif" font-style="normal" font-variant="normal" font-weight="400" font-stretch="normal" font-size="64" text-anchor="start" direction="ltr" writing-mode="lr-tb" unicode-bidi="normal" text-decoration="none" transform="matrix(1 0 0 1 2177.12 1329)">S2S </text><text fill="#FFFFFF" fill-opacity="1" font-family="Calibri,Calibri_MSFontService,sans-serif" font-style="normal" font-variant="normal" font-weight="400" font-stretch="normal" font-size="64" text-anchor="start" direction="ltr" writing-mode="lr-tb" unicode-bidi="normal" text-decoration="none" transform="matrix(1 0 0 1 2134.59 1406)">(HTTP)</text><path d="M843.5 1747.5 926.7 1661.5 1176.3 1661.5 1259.5 1747.5 1176.3 1833.5 926.7 1833.5Z" stroke="#172C51" stroke-width="4.58333" stroke-linecap="butt" stroke-linejoin="miter" stroke-miterlimit="8" stroke-opacity="1" fill="#4472C4" fill-rule="evenodd" fill-opacity="1"/><text fill="#FFFFFF" fill-opacity="1" font-family="Calibri,Calibri_MSFontService,sans-serif" font-style="normal" font-variant="normal" font-weight="400" font-stretch="normal" font-size="64" text-anchor="start" direction="ltr" writing-mode="lr-tb" unicode-bidi="normal" text-decoration="none" transform="matrix(1 0 0 1 982.811 1730)">TCP / </text><text fill="#FFFFFF" fill-opacity="1" font-family="Calibri,Calibri_MSFontService,sans-serif" font-style="normal" font-variant="normal" font-weight="400" font-stretch="normal" font-size="64" text-anchor="start" direction="ltr" writing-mode="lr-tb" unicode-bidi="normal" text-decoration="none" transform="matrix(1 0 0 1 1001.63 1807)">SQL</text><path d="M3136.5 1750 3219.5 1664.5 3468.5 1664.5 3551.5 1750 3468.5 1835.5 3219.5 1835.5Z" stroke="#172C51" stroke-width="4.58333" stroke-linecap="butt" stroke-linejoin="miter" stroke-miterlimit="8" stroke-opacity="1" fill="#4472C4" fill-rule="evenodd" fill-opacity="1"/><text fill="#FFFFFF" fill-opacity="1" font-family="Calibri,Calibri_MSFontService,sans-serif" font-style="normal" font-variant="normal" font-weight="400" font-stretch="normal" font-size="64" text-anchor="start" direction="ltr" writing-mode="lr-tb" unicode-bidi="normal" text-decoration="none" transform="matrix(1 0 0 1 3275.05 1732)">TCP / </text><text fill="#FFFFFF" fill-opacity="1" font-family="Calibri,Calibri_MSFontService,sans-serif" font-style="normal" font-variant="normal" font-weight="400" font-stretch="normal" font-size="64" text-anchor="start" direction="ltr" writing-mode="lr-tb" unicode-bidi="normal" text-decoration="none" transform="matrix(1 0 0 1 3293.87 1809)">SQL</text><path d="M1192.5 1483.75 1153.75 1520.62 1153.75 1493.9C1073.65 1486.01 1023.91 1455.53 1040.74 1424.64 1052.76 1446.69 1096.58 1464.21 1153.75 1469.84L1153.75 1443.12Z" fill="#000000" fill-rule="evenodd" fill-opacity="1"/><path d="M1037.5 1412.61C1037.5 1379.96 1106.9 1353.5 1192.5 1353.5L1192.5 1377.56C1106.9 1377.56 1037.5 1404.02 1037.5 1436.67Z" fill="#000000" fill-rule="evenodd" fill-opacity="1"/><path d="M1040.74 1424.64C1052.76 1446.69 1096.58 1464.21 1153.75 1469.84L1153.75 1443.12 1192.5 1483.75 1153.75 1520.62 1153.75 1493.9C1085.31 1487.16 1037.5 1463.62 1037.5 1436.67L1037.5 1412.61C1037.5 1379.96 1106.9 1353.5 1192.5 1353.5L1192.5 1377.56C1106.9 1377.56 1037.5 1404.02 1037.5 1436.67" stroke="#000000" stroke-width="4.58333" stroke-linecap="butt" stroke-linejoin="miter" stroke-miterlimit="8" stroke-opacity="1" fill="none" fill-rule="evenodd"/><path d="M718.5 1451 797.5 1377.5 1034.5 1377.5 1113.5 1451 1034.5 1524.5 797.5 1524.5Z" stroke="#5B9BD5" stroke-width="4.58333" stroke-linecap="butt" stroke-linejoin="miter" stroke-miterlimit="8" stroke-opacity="1" fill="#FFFFFF" fill-rule="evenodd" fill-opacity="1"/><text fill="#000000" fill-opacity="1" font-family="Calibri,Calibri_MSFontService,sans-serif" font-style="normal" font-variant="normal" font-weight="400" font-stretch="normal" font-size="64" text-anchor="start" direction="ltr" writing-mode="lr-tb" unicode-bidi="normal" text-decoration="none" transform="matrix(1 0 0 1 824.721 1434)">S</text><text fill="#000000" fill-opacity="1" font-family="Calibri,Calibri_MSFontService,sans-serif" font-style="normal" font-variant="normal" font-weight="400" font-stretch="normal" font-size="64" text-anchor="start" direction="ltr" writing-mode="lr-tb" unicode-bidi="normal" text-decoration="none" transform="matrix(1 0 0 1 853.94 1434)">hared </text><text fill="#000000" fill-opacity="1" font-family="Calibri,Calibri_MSFontService,sans-serif" font-style="normal" font-variant="normal" font-weight="400" font-stretch="normal" font-size="64" text-anchor="start" direction="ltr" writing-mode="lr-tb" unicode-bidi="normal" text-decoration="none" transform="matrix(1 0 0 1 805.517 1511)">memory</text><path d="M3837.5 2071.5 3903.1 2002.5 4099.9 2002.5 4165.5 2071.5 4099.9 2140.5 3903.1 2140.5Z" stroke="#172C51" stroke-width="4.58333" stroke-linecap="butt" stroke-linejoin="miter" stroke-miterlimit="8" stroke-opacity="1" fill="#4472C4" fill-rule="evenodd" fill-opacity="1"/><text fill="#FFFFFF" fill-opacity="1" font-family="Calibri,Calibri_MSFontService,sans-serif" font-style="normal" font-variant="normal" font-weight="400" font-stretch="normal" font-size="46" text-anchor="start" direction="ltr" writing-mode="lr-tb" unicode-bidi="normal" text-decoration="none" transform="matrix(1 0 0 1 3971.94 2059)">V</text><text fill="#FFFFFF" fill-opacity="1" font-family="Calibri,Calibri_MSFontService,sans-serif" font-style="normal" font-variant="normal" font-weight="400" font-stretch="normal" font-size="46" text-anchor="start" direction="ltr" writing-mode="lr-tb" unicode-bidi="normal" text-decoration="none" transform="matrix(1 0 0 1 3997.72 2059)">ia </text><text fill="#FFFFFF" fill-opacity="1" font-family="Calibri,Calibri_MSFontService,sans-serif" font-style="normal" font-variant="normal" font-weight="400" font-stretch="normal" font-size="46" text-anchor="start" direction="ltr" writing-mode="lr-tb" unicode-bidi="normal" text-decoration="none" transform="matrix(1 0 0 1 3922.97 2114)">network</text><path d="M3845.5 2220.5 3907.7 2160.5 4094.3 2160.5 4156.5 2220.5 4094.3 2280.5 3907.7 2280.5Z" stroke="#5B9BD5" stroke-width="4.58333" stroke-linecap="butt" stroke-linejoin="miter" stroke-miterlimit="8" stroke-opacity="1" fill="#FFFFFF" fill-rule="evenodd" fill-opacity="1"/><text fill="#000000" fill-opacity="1" font-family="Calibri,Calibri_MSFontService,sans-serif" font-style="normal" font-variant="normal" font-weight="400" font-stretch="normal" font-size="46" text-anchor="start" direction="ltr" writing-mode="lr-tb" unicode-bidi="normal" text-decoration="none" transform="matrix(1 0 0 1 3983.12 2208)">In </text><text fill="#000000" fill-opacity="1" font-family="Calibri,Calibri_MSFontService,sans-serif" font-style="normal" font-variant="normal" font-weight="400" font-stretch="normal" font-size="46" text-anchor="start" direction="ltr" writing-mode="lr-tb" unicode-bidi="normal" text-decoration="none" transform="matrix(1 0 0 1 3929.84 2263)">process</text></g></g></svg>